<?xml version="1.0" encoding="utf-8"?>
<!-- Generator: Adobe Illustrator 16.2.1, SVG Export Plug-In . SVG Version: 6.00 Build 0)  -->
<!DOCTYPE svg PUBLIC "-//W3C//DTD SVG 1.1//EN" "http://www.w3.org/Graphics/SVG/1.1/DTD/svg11.dtd">
<svg version="1.1" id="Layer_1" xmlns="http://www.w3.org/2000/svg" xmlns:xlink="http://www.w3.org/1999/xlink" x="0px" y="0px"
	 width="40px" height="40px" viewBox="0 0 40 40" enable-background="new 0 0 40 40" xml:space="preserve">
<path fill="#FFFFFF" d="M33.937,6.063c-7.697-7.697-20.177-7.697-27.875,0c-7.696,7.696-7.698,20.178,0,27.875
	c7.697,7.695,20.18,7.695,27.875,0C41.636,26.241,41.636,13.759,33.937,6.063z M7.979,32.022C1.338,25.383,1.339,14.62,7.979,7.98
	s17.401-6.64,24.041-0.001c6.641,6.64,6.641,17.402,0,24.042C25.381,38.66,14.616,38.658,7.979,32.022z"/>
<g>
	<path fill="#FFFFFF" d="M22.125,13.148c0,0.287-0.056,0.554-0.169,0.803c-0.113,0.249-0.264,0.463-0.452,0.644
		c-0.188,0.181-0.415,0.324-0.679,0.43S20.286,15.183,20,15.183c-0.603,0-1.107-0.2-1.515-0.599c-0.407-0.399-0.61-0.878-0.61-1.436
		c0-0.271,0.053-0.531,0.158-0.78c0.105-0.249,0.256-0.463,0.452-0.644c0.195-0.181,0.422-0.328,0.679-0.441
		c0.256-0.113,0.534-0.169,0.836-0.169c0.286,0,0.562,0.053,0.825,0.158s0.49,0.249,0.679,0.429
		c0.188,0.181,0.339,0.396,0.452,0.645S22.125,12.862,22.125,13.148z M18.146,28.002V16.743h3.708v11.259H18.146z"/>
</g>
</svg>
