<?xml version="1.0" encoding="utf-8"?>
<!-- Generator: Adobe Illustrator 16.2.1, SVG Export Plug-In . SVG Version: 6.00 Build 0)  -->
<!DOCTYPE svg PUBLIC "-//W3C//DTD SVG 1.1//EN" "http://www.w3.org/Graphics/SVG/1.1/DTD/svg11.dtd">
<svg version="1.1" id="Layer_1" xmlns="http://www.w3.org/2000/svg" xmlns:xlink="http://www.w3.org/1999/xlink" x="0px" y="0px"
	 width="40px" height="40px" viewBox="0 0 40 40" enable-background="new 0 0 40 40" xml:space="preserve">
<path fill="#FFFFFF" d="M33.938,6.062C26.24-1.635,13.76-1.635,6.062,6.062c-7.696,7.696-7.698,20.178,0,27.875
	c7.697,7.696,20.18,7.696,27.875,0C41.636,26.24,41.636,13.758,33.938,6.062z M7.979,32.021C1.339,25.382,1.34,14.619,7.98,7.979
	c6.64-6.64,17.402-6.64,24.041-0.001c6.641,6.64,6.641,17.402,0,24.042C25.382,38.659,14.616,38.657,7.979,32.021z"/>
<polygon fill="#FFFFFF" points="28.623,26.054 22.308,19.738 28.623,13.422 26.708,11.506 20.392,17.822 14.076,11.506 
	12.16,13.422 18.475,19.738 12.16,26.054 14.076,27.971 20.392,21.654 26.708,27.971 "/>
</svg>
